Coordinates
version=1
nRows=17
nColumns=40
inDegrees=yes

Units are S.I. units (second, meters, Newtons, ...)
Angles are in degrees.

endheader
time	pelvis_tilt	pelvis_list	pelvis_rotation	pelvis_tx	pelvis_ty	pelvis_tz	hip_flexion_r	hip_adduction_r	hip_rotation_r	knee_angle_r	knee_angle_r_beta	ankle_angle_r	subtalar_angle_r	mtp_angle_r	hip_flexion_l	hip_adduction_l	hip_rotation_l	knee_angle_l	knee_angle_l_beta	ankle_angle_l	subtalar_angle_l	mtp_angle_l	lumbar_extension	lumbar_bending	lumbar_rotation	arm_flex_r	arm_add_r	arm_rot_r	elbow_flex_r	pro_sup_r	wrist_flex_r	wrist_dev_r	arm_flex_l	arm_add_l	arm_rot_l	elbow_flex_l	pro_sup_l	wrist_flex_l	wrist_dev_l
      0.00000000	     -5.23700778	      0.20522882	     -8.64907436	     -0.95928922	      0.94141118	      1.01393512	    -10.14794266	     -3.59792723	    -24.24742046	    -10.48067388	     -0.18292227	      6.15960305	      9.95710201	    -16.67797484	     32.14053135	      0.87340557	     27.30973034	    -12.52186133	     -0.21854771	      2.46880524	      4.88053988	      2.59690824	     -3.19287633	     -4.63777979	      6.01091012	     14.08840622	    -25.04935434	    -10.59421729	     40.29720446	     89.95437384	      0.00000000	      0.00000000	     -7.46470850	     22.66370865	     20.67496672	      7.22067228	     89.95437384	      0.00000000	      0.00000000
      0.01000000	     -5.46562901	      0.20325519	     -8.74898899	     -0.94503071	      0.93908822	      1.01595723	    -10.76521480	     -3.68222278	    -24.22438769	    -10.64241617	     -0.18574520	      5.84815824	     10.14579386	    -16.65061772	     32.42481588	      1.01107068	     27.20982127	    -11.07129832	     -0.19323061	      1.76257297	      3.39325926	      2.73111791	     -2.76190918	     -4.58735094	      6.17438524	     14.22795721	    -25.22119339	    -10.82433669	     41.84112516	     89.95437384	      0.00000000	      0.00000000	     -8.10504670	     23.25819673	     20.46455689	      6.01800842	     89.95437384	      0.00000000	      0.00000000
      0.02000000	     -5.56911237	      0.32012292	     -8.91764455	     -0.93016873	      0.93706517	      1.01799965	    -11.35771160	     -4.01393555	    -24.18291326	    -11.16994019	     -0.19495223	      5.43237779	     10.23953598	    -16.52248295	     32.51891349	      1.13683344	     26.90780725	    -10.26592965	     -0.17917427	      1.29171139	      1.78020202	      2.74962014	     -2.37884794	     -4.68256951	      6.36876773	     14.20395428	    -25.20631142	    -11.30874121	     43.45040117	     89.95437384	      0.00000000	      0.00000000	     -8.82764466	     23.80850742	     20.02245645	      4.94999059	     89.95437384	      0.00000000	      0.00000000
      0.03000000	     -5.64847385	      0.38821293	     -9.27721488	     -0.91484844	      0.93520145	      1.02038253	    -11.91949216	     -4.34618956	    -23.90201195	    -11.76502967	     -0.20533850	      5.17093074	     10.03147587	    -16.25850159	     32.70510796	      1.49823080	     26.32608348	    -10.49146967	     -0.18311069	      1.08366571	      1.48119651	      2.72813519	     -1.93295128	     -4.75052017	      6.46518237	     14.52733191	    -24.96391826	    -11.47395016	     44.49932695	     89.95437384	      0.00000000	      0.00000000	    -10.06156890	     24.19790349	     19.85010657	      4.48318731	     89.95437384	      0.00000000	      0.00000000
      0.04000000	     -5.55109143	      0.64454063	     -9.78220414	     -0.89867575	      0.93368362	      1.02247314	    -12.43605895	     -5.10995196	    -23.56700767	    -12.79204992	     -0.22326339	      4.17536604	     10.24560763	    -15.90006840	     32.31031706	      1.60434783	     25.37265762	    -10.58039789	     -0.18466278	      1.01716081	      0.20834557	      2.58347148	     -1.59944850	     -4.99027023	      7.13308268	     13.67285762	    -24.91491130	    -12.44343209	     46.84873328	     89.95437384	      0.00000000	      0.00000000	    -10.62713169	     24.57469589	     19.23441665	      3.43990125	     89.95437384	      0.00000000	      0.00000000
      0.05000000	     -5.54567379	      0.78063822	    -10.33544919	     -0.88208998	      0.93219155	      1.02502591	    -12.94150600	     -5.65423872	    -23.07171532	    -13.63521515	     -0.23797940	      3.73745937	      9.94595344	    -15.50809505	     32.06905995	      1.94864996	     24.33851391	    -11.42021835	     -0.19932041	      0.76763714	      0.10920616	      2.53579929	     -1.04214178	     -5.13960727	      7.31375810	     13.66925432	    -24.50683285	    -12.57735198	     47.89893487	     89.95437384	      0.00000000	      0.00000000	    -12.07385606	     24.81004104	     19.01109683	      3.12404446	     89.95437384	      0.00000000	      0.00000000
      0.06000000	     -5.08446403	      1.12424580	    -10.96163222	     -0.86485176	      0.93132412	      1.02698027	    -13.69386891	     -6.75180746	    -22.86792672	    -14.91022810	     -0.26023257	      2.32756812	     10.33624817	    -14.97474790	     31.28088885	      1.93325183	     23.17498038	    -12.73781926	     -0.22231689	      1.34525792	      0.47906797	      2.24829134	     -0.97315020	     -5.50552541	      8.14773701	     12.42538888	    -24.31588749	    -13.80909350	     50.39142762	     89.95437384	      0.00000000	      0.00000000	    -12.59472964	     25.05789465	     17.81397562	      2.33283338	     89.95437384	      0.00000000	      0.00000000
      0.07000000	     -4.78004553	      1.73153215	    -11.47191273	     -0.84688661	      0.93018448	      1.02835191	    -14.20303539	     -8.21199316	    -23.08996996	    -16.34670160	     -0.28530376	      1.29664346	     11.30702618	    -14.49033973	     30.62715319	      1.42177384	     22.16226753	    -13.99395281	     -0.24424055	      0.84610521	      2.54256834	      2.07611467	     -0.48013844	     -6.08110345	      8.68789407	     11.42819383	    -23.99349258	    -14.49423163	     52.11706300	     89.95437384	      0.00000000	      0.00000000	    -13.72783332	     25.23668934	     14.67928153	      2.08071499	     89.95437384	      0.00000000	      0.00000000
      0.08000000	     -4.43551535	      2.30866917	    -11.91248129	     -0.82899219	      0.92936356	      1.02966393	    -14.70511054	     -9.51950214	    -22.87041019	    -17.69495109	     -0.30883516	     -0.21537518	     10.92166890	    -13.67377254	     30.36367702	      1.11073598	     23.37746409	    -15.72410634	     -0.27443743	     -1.30184033	      6.41260325	      2.70701534	     -0.14393692	     -6.70895251	      8.82008078	     10.69972445	    -23.58509393	    -14.67497385	     53.59530272	     89.95437384	      0.00000000	      0.00000000	    -14.84144322	     25.22839547	     15.33698233	      1.90604068	     89.95437384	      0.00000000	      0.00000000
      0.09000000	     -4.23582591	      2.79457261	    -12.13426440	     -0.81151743	      0.92888348	      1.03091722	    -14.95540156	    -10.59673239	    -22.56275426	    -19.09298474	     -0.33323545	     -2.04785819	     10.04055119	    -12.93870678	     30.12786594	      0.86596697	     23.54516735	    -16.91921392	     -0.29529599	     -2.72331402	      7.54562884	      2.94743808	      0.28920024	     -7.25319193	      8.76905948	      9.97919908	    -23.01077617	    -15.00012941	     54.82458720	     89.95437384	      0.00000000	      0.00000000	    -15.81396632	     25.20234628	     15.64904670	      1.78716982	     89.95437384	      0.00000000	      0.00000000
      0.10000000	     -4.22375032	      3.44472463	    -12.09122873	     -0.79448121	      0.92833838	      1.03113201	    -14.66654153	    -11.84732277	    -22.45013716	    -21.02980781	     -0.36703939	     -4.41863032	      9.04339977	    -12.01382929	     30.12996900	      0.22426647	     22.45335904	    -17.93013125	     -0.31293983	     -4.95931930	      7.90332153	      3.21553669	      0.88805771	     -7.89993997	      8.48994058	      9.20576414	    -22.44908201	    -15.27333576	     55.90217859	     89.95437384	      0.00000000	      0.00000000	    -16.61404081	     25.07637038	     16.10033476	      1.67550184	     89.95437384	      0.00000000	      0.00000000
      0.11000000	     -4.59917860	      4.67293215	    -11.76305265	     -0.77761383	      0.92725812	      1.02978317	    -13.47692314	    -13.89446333	    -23.02516905	    -23.80602578	     -0.41549353	     -6.65319556	      8.53136732	    -10.82888310	     30.79222718	     -1.30829295	     20.68875259	    -19.40800548	     -0.33873360	     -5.75110612	      8.89385337	      2.94250319	      1.99145069	     -9.03724670	      7.86213181	      8.47632972	    -21.76097464	    -15.48367882	     56.68523635	     89.95437384	      0.00000000	      0.00000000	    -17.42342280	     24.82174521	     17.56979170	      1.72177464	     89.95437384	      0.00000000	      0.00000000
      0.12000000	     -5.13928892	      5.33473553	    -11.21590135	     -0.76125957	      0.92623302	      1.02847532	    -12.04399832	    -15.14789446	    -23.33011108	    -26.56835860	     -0.46370533	     -9.83123556	      7.00711849	     -9.25803157	     31.87931009	     -2.15936688	     19.83001128	    -21.91648470	     -0.38251482	     -4.98037298	     10.61436391	      2.70222585	      3.04763574	     -9.53641128	      7.07029637	      7.60045413	    -21.22758410	    -15.48660668	     57.52670112	     89.95437384	      0.00000000	      0.00000000	    -17.99535468	     24.49261157	     18.39768566	      1.68711012	     89.95437384	      0.00000000	      0.00000000
      0.13000000	     -5.31865329	      5.73893447	    -10.71590240	     -0.74515227	      0.92611889	      1.02753271	    -10.86974345	    -16.13871425	    -23.44567891	    -29.22844446	     -0.51013259	    -13.51812369	      5.47173765	     -8.11502624	     32.16131358	     -2.87204092	     19.21804608	    -23.74074284	     -0.41435413	     -4.08518239	     10.74640266	      2.41619223	      3.58044741	     -9.85619556	      6.41451185	      6.64510304	    -20.72290774	    -15.59629377	     58.28380124	     89.95437384	      0.00000000	      0.00000000	    -18.23666690	     24.17212558	     18.51289505	      1.69438183	     89.95437384	      0.00000000	      0.00000000
      0.14000000	     -6.30887278	      6.36265795	     -9.99021506	     -0.72978137	      0.92519013	      1.02597438	     -8.46339281	    -16.92277681	    -22.67650655	    -32.06507538	     -0.55964114	    -17.49778071	      1.26540615	     -6.37398573	     32.88396198	     -4.26214879	     17.41373080	    -24.32531494	     -0.42455684	     -3.56303403	     12.68031679	      2.36280973	      5.00104630	    -10.27403608	      5.61902500	      5.55309621	    -20.05934105	    -15.76369086	     58.85161404	     89.95437384	      0.00000000	      0.00000000	    -18.44737347	     23.80159811	     18.83180759	      1.75290543	     89.95437384	      0.00000000	      0.00000000
      0.15000000	     -6.73062133	      6.73681492	     -9.43597733	     -0.71438746	      0.92517285	      1.02488932	     -6.62383669	    -17.55454864	    -21.83959003	    -34.93267747	     -0.60969024	    -20.37534062	     -1.39007950	     -5.13741459	     32.87932550	     -5.27199461	     16.26322764	    -25.16060261	     -0.43913536	     -2.38491041	     13.93430217	      2.18811960	      5.70804961	    -10.50874739	      5.01000583	      4.38696757	    -19.50301920	    -15.87771843	     59.45118943	     89.95437384	      0.00000000	      0.00000000	    -18.31281434	     23.40184199	     19.03812152	      1.82995369	     89.95437384	      0.00000000	      0.00000000
      0.16000000	     -6.98960874	      7.07941573	     -8.93842149	     -0.69948235	      0.92571485	      1.02401309	     -4.73480882	    -18.14827079	    -20.86286811	    -38.17320112	     -0.66624805	    -21.75019618	     -3.79290312	     -4.40149525	     32.51283319	     -6.23774343	     15.21068992	    -25.66557187	     -0.44794873	     -1.14084359	     14.47809554	      1.98283291	      6.16378295	    -10.75400768	      4.42751363	      3.30412424	    -18.91358209	    -15.89330036	     59.83517938	     89.95437384	      0.00000000	      0.00000000	    -17.92326866	     22.99977403	     19.17615392	      1.83356415	     89.95437384	      0.00000000	      0.00000000
